<?xml version="1.0" encoding="UTF-8"?>
<svg version="1.1" xmlns="http://www.w3.org/2000/svg" width="512" height="512">
<path d="M0 0 C168.96 0 337.92 0 512 0 C512 168.96 512 337.92 512 512 C343.04 512 174.08 512 0 512 C0 343.04 0 174.08 0 0 Z " fill="#3945C6" transform="translate(0,0)"/>
<path d="M0 0 C0.77901672 0.00021149 1.55803345 0.00042297 2.36065674 0.00064087 C14.0218805 0.03229392 24.85617622 0.66442093 36 4.375 C37.18851563 4.76042969 38.37703125 5.14585937 39.6015625 5.54296875 C58.13599348 12.12588734 72.58888191 23.92424844 81.55859375 41.4140625 C86.77974859 53.15778763 88.45125119 64.75738008 88.34057617 77.51879883 C88.33972735 78.88030478 88.34021001 80.2418121 88.34190369 81.60331726 C88.34275511 85.25544773 88.32526986 88.90727515 88.30418181 92.55933595 C88.28527067 96.39229893 88.28365331 100.22527088 88.28010559 104.05827332 C88.27082712 111.2969302 88.246271 118.53544916 88.21605712 125.77404565 C88.1823814 134.02326373 88.16599418 142.27248883 88.15097082 150.52175868 C88.11971703 167.4729323 88.06475837 184.42391622 88 201.375 C98.56 201.375 109.12 201.375 120 201.375 C120 211.605 120 221.835 120 232.375 C115.2158786 232.46754614 110.43494294 232.54695514 105.65063477 232.59472656 C104.02813107 232.61466813 102.40569758 232.64183174 100.78344727 232.67675781 C88.53830139 232.93351696 77.71768868 232.28581819 67.77734375 224.1953125 C61.61016762 217.87903981 55.78619859 207.2453498 55.75 198.25 C55.8325 197.30125 55.915 196.3525 56 195.375 C52.75598231 196.07134536 52.75598231 196.07134536 51.5625 199.11328125 C51.046875 200.29277344 50.53125 201.47226562 50 202.6875 C43.34378106 216.88050587 31.40897378 227.2583358 16.9921875 233.30859375 C-5.15824621 241.20293892 -33.56221627 239.70761486 -55 230.375 C-63.45438518 226.23049089 -70.34433865 221.00680593 -77 214.375 C-77.57492187 213.82328125 -78.14984375 213.2715625 -78.7421875 212.703125 C-91.04114628 199.83063964 -93.3606683 180.67370446 -93.1484375 163.75390625 C-92.73928826 147.92787931 -85.80267615 133.78272324 -74.5625 122.75 C-52.92300553 104.24855911 -22.06612089 102.17058306 5.05078125 102.27734375 C6.44467619 102.27921499 7.83857181 102.28063555 9.23246765 102.28163147 C12.85401308 102.28540113 16.47551669 102.29518208 20.0970459 102.30633545 C23.81143631 102.31667082 27.52583365 102.32115474 31.24023438 102.32617188 C38.49350839 102.33681092 45.74674828 102.35381821 53 102.375 C52.95525995 97.77024655 52.88483749 93.16678916 52.79248047 88.56274414 C52.76457831 87.00262881 52.74321399 85.44238019 52.72900391 83.88208008 C52.58459827 68.90721561 50.57586782 55.60410775 40 44.22265625 C28.05955513 32.77262251 13.49842643 30.97612642 -2.4375 31.0625 C-3.53280029 31.06813965 -4.62810059 31.0737793 -5.7565918 31.07958984 C-23.44461027 31.34533769 -38.19691326 36.73915242 -51 49.375 C-54.58467836 53.51869017 -57.82249211 57.91546072 -61 62.375 C-66.44443392 61.39551253 -70.34623269 57.72936143 -74.6875 54.5 C-75.56728516 53.86191406 -76.44707031 53.22382813 -77.35351562 52.56640625 C-78.18947266 51.94894531 -79.02542969 51.33148438 -79.88671875 50.6953125 C-80.65201904 50.13086426 -81.41731934 49.56641602 -82.20581055 48.98486328 C-84 47.375 -84 47.375 -85 44.375 C-76.46251817 26.43434762 -59.25826116 13.41681514 -40.98046875 6.62451172 C-36.37463553 5.02092713 -31.7258091 3.58255545 -27 2.375 C-26.30326172 2.18808594 -25.60652344 2.00117188 -24.88867188 1.80859375 C-16.68820515 -0.13234512 -8.37614998 -0.02087576 0 0 Z " fill="#F3F4F8" transform="translate(376,137.625)"/>
<path d="M0 0 C5.90323578 -0.42390665 11.79746384 -0.73015544 17.71240234 -0.93383789 C19.71755256 -1.0187691 21.7216669 -1.13438963 23.72314453 -1.2824707 C39.84736431 -2.44454041 39.84736431 -2.44454041 45.03564453 1.57843018 C48.72423214 5.59582118 51.36889358 10.15591246 53.90148926 14.96194458 C55.25825318 17.47913441 56.86356673 19.72666095 58.59375 22 C59.07972656 22.66966797 59.56570312 23.33933594 60.06640625 24.02929688 C60.53949219 24.67962891 61.01257813 25.32996094 61.5 26 C65.70791403 31.80489345 69.87591336 37.6352672 74 43.5 C79.733375 51.64887287 85.5489698 59.73597139 91.40527344 67.796875 C93.01065073 70.01471405 94.6038559 72.24090687 96.1953125 74.46875 C97.19252106 75.85430147 98.1899084 77.23972429 99.1875 78.625 C99.64519775 79.27098145 100.10289551 79.91696289 100.57446289 80.58251953 C101.66731795 82.09173009 102.8274033 83.55187512 104 85 C104.66 85 105.32 85 106 85 C107.57458041 82.97161443 107.57458041 82.97161443 109.25 80.25 C112.97365124 74.5228625 116.82318046 68.90231105 120.75 63.3125 C121.65516357 62.02267212 121.65516357 62.02267212 122.57861328 60.70678711 C127.88360713 53.15433311 133.20431925 45.61296192 138.53222656 38.07666016 C140.52210157 35.26131138 142.51019055 32.44470405 144.49804688 29.62792969 C145.49123016 28.2208124 146.48471474 26.81390773 147.47851562 25.40722656 C150.1089986 21.6833083 152.73389304 17.95559505 155.3515625 14.22265625 C155.89941406 13.44277344 156.44726562 12.66289062 157.01171875 11.859375 C158.0654116 10.35920212 159.11756432 8.85794598 160.16796875 7.35546875 C160.87759766 6.34613281 160.87759766 6.34613281 161.6015625 5.31640625 C162.01744629 4.72287354 162.43333008 4.12934082 162.86181641 3.51782227 C164 2 164 2 166 0 C169.01308951 -0.17546482 171.93310454 -0.23127445 174.9453125 -0.1953125 C176.27283035 -0.19106766 176.27283035 -0.19106766 177.62716675 -0.18673706 C180.45991412 -0.1755224 183.29234784 -0.1504157 186.125 -0.125 C188.04296419 -0.11497185 189.96093333 -0.10584572 191.87890625 -0.09765625 C196.58605876 -0.07557889 201.29297616 -0.04104045 206 0 C203.85861165 3.83802237 201.78718377 7.51262959 199.0390625 10.953125 C198.49266113 11.64446533 197.94625977 12.33580566 197.38330078 13.0480957 C196.80306152 13.77472412 196.22282227 14.50135254 195.625 15.25 C190.67776872 21.52509045 185.83913201 27.86044537 181.125 34.3125 C176.15970469 41.1018099 171.11316329 47.82134468 166 54.5 C159.14430463 63.4612792 152.41965268 72.51086015 145.75292969 81.61328125 C143.91775815 84.1119772 142.07332262 86.6036086 140.2265625 89.09375 C139.60281738 89.93599121 138.97907227 90.77823242 138.33642578 91.64599609 C137.1566379 93.23859994 135.97544129 94.83016171 134.79248047 96.42041016 C131.02917147 101.50890704 127.46505131 106.70409049 124 112 C124.55945313 112.71800781 125.11890625 113.43601562 125.6953125 114.17578125 C132.67416945 123.18546313 139.44462707 132.33976171 146.18554688 141.52832031 C149.11805746 145.52303737 152.05936661 149.51126088 155 153.5 C156.16671111 155.08330059 157.33337772 156.66663396 158.5 158.25 C159.0775 159.03375 159.655 159.8175 160.25 160.625 C166.66666667 169.33333333 173.08333333 178.04166667 179.5 186.75 C180.07830566 187.5347168 180.65661133 188.31943359 181.25244141 189.12792969 C182.41145934 190.70113704 183.56999321 192.27470114 184.72802734 193.84863281 C187.75771557 197.96504776 190.79717821 202.07374288 193.8515625 206.171875 C194.48320312 207.02201172 195.11484375 207.87214844 195.765625 208.74804688 C196.96823036 210.3662585 198.17376628 211.98229811 199.3828125 213.59570312 C200.20265625 214.70075195 200.20265625 214.70075195 201.0390625 215.828125 C201.51553223 216.4665332 201.99200195 217.10494141 202.48291016 217.76269531 C204.5067069 220.74725814 206.23736975 223.85410572 208 227 C171.9596657 229.99084887 171.9596657 229.99084887 162.83007812 225.40917969 C158.19298697 221.31797395 155.65532385 216.19428911 153.20849609 210.59082031 C151.29839558 206.49587351 148.63095353 203.0441552 145.9375 199.4375 C144.95138671 198.0421212 143.96961172 196.64366647 142.9921875 195.2421875 C138.27845875 188.53980589 133.45761949 181.91437516 128.64990234 175.27929688 C126.98915323 172.98501548 125.3318875 170.68825963 123.67578125 168.390625 C123.12873535 167.63193115 122.58168945 166.8732373 122.01806641 166.09155273 C120.93273694 164.58612174 119.84776905 163.08043 118.76318359 161.57446289 C116.11219313 157.8998347 113.44378056 154.24019519 110.73828125 150.60546875 C109.96701904 149.56652466 109.96701904 149.56652466 109.18017578 148.5065918 C108.20744809 147.19896194 107.23074543 145.89427674 106.24951172 144.59301758 C103 140.22149083 103 140.22149083 103 138 C99.80567081 139.35678154 98.2332949 140.65646897 96.328125 143.54296875 C95.59178833 144.6407666 95.59178833 144.6407666 94.84057617 145.76074219 C94.31568604 146.56157227 93.7907959 147.36240234 93.25 148.1875 C92.08571855 149.9265069 90.92030431 151.6647558 89.75390625 153.40234375 C89.1417627 154.31870605 88.52961914 155.23506836 87.89892578 156.17919922 C84.71607689 160.90723163 81.45037647 165.57700212 78.1875 170.25 C76.83324577 172.19394942 75.47907997 174.13796045 74.125 176.08203125 C73.44695312 177.05479004 72.76890625 178.02754883 72.0703125 179.02978516 C59.87380429 196.52094016 59.87380429 196.52094016 47.75 214.0625 C47.32033936 214.68697021 46.89067871 215.31144043 46.44799805 215.95483398 C44.59460119 218.65458184 42.89130475 221.22150412 41.4453125 224.16821289 C39 227 39 227 37.05963135 227.52351379 C34.56575167 227.69613641 32.13898616 227.67423961 29.640625 227.5859375 C28.73624695 227.57744781 27.8318689 227.56895813 26.90008545 227.56021118 C24.01550443 227.52666085 21.13373379 227.45138076 18.25 227.375 C16.29300916 227.34490241 14.33597445 227.31752624 12.37890625 227.29296875 C7.58485698 227.22686431 2.79290469 227.12333286 -2 227 C2.00435207 220.87553736 6.19092946 214.92934638 10.5625 209.0625 C15.2501158 202.73770204 19.90297495 196.39095162 24.5 190 C30.68051542 181.41605521 36.94786214 172.89798011 43.23388672 164.39111328 C46.15956099 160.43008842 49.07953146 156.4648637 52 152.5 C56.18428307 146.8203637 60.36939402 141.1413434 64.55859375 135.46533203 C65.75379171 133.84313996 66.94656941 132.21916142 68.13671875 130.59326172 C70.62038409 127.20248758 73.11145349 123.82992036 75.7265625 120.5390625 C76.47679688 119.57742188 77.22703125 118.61578125 78 117.625 C78.639375 116.83351563 79.27875 116.04203125 79.9375 115.2265625 C81.24009177 113.05979884 81.24009177 113.05979884 80.578125 110.75 C78.26838424 106.72510521 75.54300799 103.0758864 72.75 99.375 C71.47381362 97.66417044 70.19777606 95.95322986 68.921875 94.2421875 C68.26896484 93.37045898 67.61605469 92.49873047 66.94335938 91.60058594 C63.94090893 87.58273391 60.97119167 83.54098901 58 79.5 C56.83351127 77.91653557 55.66684405 76.33320261 54.5 74.75 C33.5 46.25 33.5 46.25 31.7487793 43.87329102 C30.58624831 42.29560517 29.42365103 40.71796817 28.26098633 39.14038086 C25.28048844 35.09604621 22.30127242 31.05077703 19.32421875 27.00390625 C18.11202755 25.35673522 16.89978868 23.70959928 15.6875 22.0625 C15.10726074 21.27375488 14.52702148 20.48500977 13.92919922 19.67236328 C9.8235616 14.0983288 5.67164206 8.56168284 1.4765625 3.0546875 C0 1 0 1 0 0 Z " fill="#F3F4F8" transform="translate(19,143)"/>
<path d="M0 0 C0.66426498 -0.00014603 1.32852997 -0.00029205 2.01292419 -0.0004425 C4.18256025 0.00024754 6.35210768 0.00799686 8.52172852 0.01586914 C10.03630018 0.01773655 11.55087246 0.01915893 13.06544495 0.02015686 C17.03231503 0.02395659 20.99914792 0.03376488 24.96600342 0.04486084 C29.02168271 0.05512993 33.07736807 0.05966621 37.13305664 0.06469727 C45.076433 0.07538966 53.01977924 0.09243519 60.96313477 0.11352539 C61.06280941 5.89350487 61.13498059 11.67297227 61.18286133 17.45361328 C61.20284394 19.41561613 61.2300396 21.37756044 61.26489258 23.33935547 C61.53736812 39.08283199 60.54987503 50.67405621 49.51391602 62.69165039 C39.53787606 72.24050475 26.09438994 75.61105258 12.96313477 78.11352539 C11.9924707 78.3055957 11.02180664 78.49766602 10.02172852 78.69555664 C-5.36498299 80.7982107 -21.63425433 79.54727567 -34.88452148 70.81665039 C-41.02016022 65.96158962 -46.16197694 59.93471833 -47.58764648 52.07836914 C-48.13093096 47.28329311 -48.29769812 42.56078953 -48.34936523 37.73852539 C-48.37836914 36.84391602 -48.40737305 35.94930664 -48.43725586 35.02758789 C-48.52384569 25.86238762 -45.45480951 18.66493142 -39.20874023 11.96508789 C-28.63913423 2.95430867 -13.52087786 -0.02517854 0 0 Z " fill="#3945C6" transform="translate(368.036865234375,266.886474609375)"/>
<path d="M0 0 C0.33 0 0.66 0 1 0 C1 13.53 1 27.06 1 41 C-12.53 41 -26.06 41 -40 41 C-36.76284016 39.38142008 -33.61375469 38.05715856 -30.25 36.75 C-24.78388069 34.47853851 -20.44415797 31.88380762 -16 28 C-15.40703125 27.52304687 -14.8140625 27.04609375 -14.203125 26.5546875 C-6.56114327 19.82568589 -2.52693015 9.66396702 0 0 Z " fill="#000000" transform="translate(511,471)"/>
<path d="M0 0 C1.61857992 3.23715984 2.94284144 6.38624531 4.25 9.75 C6.52146149 15.21611931 9.11619238 19.55584203 13 24 C13.71542969 24.88945312 13.71542969 24.88945312 14.4453125 25.796875 C21.17431411 33.43885673 31.33603298 37.47306985 41 40 C41 40.33 41 40.66 41 41 C27.47 41 13.94 41 0 41 C0 27.47 0 13.94 0 0 Z " fill="#000000" transform="translate(0,471)"/>
<path d="M0 0 C13.53 0 27.06 0 41 0 C41 13.53 41 27.06 41 41 C39.38142008 37.76284016 38.05715856 34.61375469 36.75 31.25 C34.47853851 25.78388069 31.88380762 21.44415797 28 17 C27.52304687 16.40703125 27.04609375 15.8140625 26.5546875 15.203125 C19.82568589 7.56114327 9.66396702 3.52693015 0 1 C0 0.67 0 0.34 0 0 Z " fill="#000000" transform="translate(471,0)"/>
<path d="M0 0 C13.53 0 27.06 0 41 0 C37.76284016 1.61857992 34.61375469 2.94284144 31.25 4.25 C25.78388069 6.52146149 21.44415797 9.11619238 17 13 C16.40703125 13.47695312 15.8140625 13.95390625 15.203125 14.4453125 C7.56114327 21.17431411 3.52693015 31.33603298 1 41 C0.67 41 0.34 41 0 41 C0 27.47 0 13.94 0 0 Z " fill="#000000" transform="translate(0,0)"/>
</svg>
