<?xml version="1.0" encoding="UTF-8"?>
<svg version="1.1" xmlns="http://www.w3.org/2000/svg" width="512" height="512">
<path d="M0 0 C168.96 0 337.92 0 512 0 C512 168.96 512 337.92 512 512 C343.04 512 174.08 512 0 512 C0 343.04 0 174.08 0 0 Z " fill="#fff" transform="translate(0,0)"/>
<path d="M0 0 C13.69705472 10.8331251 19.29051497 25.12316193 21.61964798 41.90196609 C21.9000754 43.9183962 22.1940965 45.93292577 22.49020386 47.94711304 C24.2964874 61.83166241 24.19951588 75.67694635 24.14028788 89.65758562 C24.12760129 93.16888149 24.12659615 96.68018255 24.12423706 100.1914978 C24.11807405 106.81017508 24.10173509 113.42878458 24.08153808 120.0474323 C24.05901564 127.5954595 24.04814499 135.14349031 24.03814721 142.69154286 C24.01736286 158.19024093 23.9807533 173.68884588 23.9375 189.1875 C14.6975 189.1875 5.4575 189.1875 -4.0625 189.1875 C-4.08755615 185.77825195 -4.1126123 182.36900391 -4.13842773 178.85644531 C-4.22235945 167.52099171 -4.31093986 156.18557751 -4.40183926 144.85017776 C-4.45677458 137.98574572 -4.51018445 131.12130856 -4.55981445 124.25683594 C-4.60782309 117.61724338 -4.66033231 110.97769569 -4.71544075 104.33815765 C-4.73563078 101.82039259 -4.75437826 99.30261548 -4.77157402 96.78482819 C-4.85152572 85.20252751 -4.95007415 73.6257366 -5.47680664 62.05371094 C-5.52521399 60.89540709 -5.52521399 60.89540709 -5.57459927 59.71370316 C-6.30467751 45.7117853 -9.40221122 33.38322746 -19.75 23.4375 C-27.76033806 16.82628048 -36.7446669 14.06627041 -47.01953125 14.0546875 C-48.13263672 14.05339844 -49.24574219 14.05210937 -50.39257812 14.05078125 C-51.54177734 14.05464844 -52.69097656 14.05851562 -53.875 14.0625 C-55.01259766 14.05863281 -56.15019531 14.05476563 -57.32226562 14.05078125 C-69.14397888 14.06442431 -77.31937226 15.57422993 -89.0625 19.1875 C-89.3925 75.2875 -89.7225 131.3875 -90.0625 189.1875 C-99.3025 189.1875 -108.5425 189.1875 -118.0625 189.1875 C-118.05504257 187.20014328 -118.04758514 185.21278656 -118.03990173 183.16520691 C-117.97372689 164.37849425 -117.95783764 145.59220927 -117.98734188 126.80539989 C-118.0013186 117.14829904 -117.99880812 107.4917479 -117.95629883 97.8347168 C-117.91925325 89.4091042 -117.91434971 80.9841622 -117.94667059 72.55852014 C-117.96266976 68.1045967 -117.96350733 63.65192947 -117.92573357 59.19811058 C-117.36516438 34.25274464 -117.36516438 34.25274464 -126.22999573 11.32563782 C-126.83472214 10.29005234 -127.43944855 9.25446686 -128.0625 8.1875 C-127.0625 5.1875 -127.0625 5.1875 -125.25927734 4.00830078 C-124.4802002 3.63688965 -123.70112305 3.26547852 -122.8984375 2.8828125 C-122.03105957 2.46652588 -121.16368164 2.05023926 -120.27001953 1.62133789 C-119.33528809 1.18942139 -118.40055664 0.75750488 -117.4375 0.3125 C-116.48343262 -0.13295166 -115.52936523 -0.57840332 -114.54638672 -1.03735352 C-102.05578039 -6.77052293 -89.58389927 -10.47195369 -76.0625 -12.8125 C-75.17820312 -12.998125 -74.29390625 -13.18375 -73.3828125 -13.375 C-48.74478958 -16.62142184 -20.97135422 -14.21104113 0 0 Z " fill="#222" transform="translate(364.0625,190.8125)"/>
<path d="M0 0 C11.88 0 23.76 0 36 0 C36 17.49 36 34.98 36 53 C49.86 53 63.72 53 78 53 C78 61.91 78 70.82 78 80 C64.14 80 50.28 80 36 80 C36.14980425 92.33305544 36.14980425 92.33305544 36.30664062 104.66601562 C36.37236486 109.71229683 36.43734944 114.75857828 36.49731445 119.80493164 C36.69936393 141.60476116 36.69936393 141.60476116 37.4296875 163.390625 C37.4610228 164.0961702 37.49235809 164.80171539 37.52464294 165.52864075 C38.58400569 183.99353764 48.96140504 199.60358628 62.0625 211.9375 C70.37970259 219.27828418 79.34425217 226.50107025 89 232 C87.69596002 235.64067815 86.13844274 238.397786 83.7421875 241.42578125 C83.11699219 242.22177734 82.49179688 243.01777344 81.84765625 243.83789062 C81.19667969 244.65451172 80.54570312 245.47113281 79.875 246.3125 C79.21628906 247.14845703 78.55757813 247.98441406 77.87890625 248.84570312 C76.25785572 250.90138315 74.63145664 252.95257593 73 255 C62.81315085 249.59694475 53.82273492 243.41694373 45 236 C44.030625 235.19691406 43.06125 234.39382813 42.0625 233.56640625 C19.6912119 214.21397094 10.3436531 189.98413275 8 161 C7.59052194 152.02349065 7.656346 143.03752078 7.71157074 134.05399895 C7.73810385 129.66480525 7.73633408 125.27586589 7.73028564 120.88661194 C7.71687001 108.4248562 7.73422351 95.9633471 7.79052734 83.50170898 C7.82157953 76.57534589 7.82689871 69.64941532 7.80564141 62.72301108 C7.7956539 59.08483906 7.79815486 55.44774158 7.83361053 51.80970573 C7.98999503 35.1233761 6.98206051 20.47409142 0.6299324 4.86673832 C0 3 0 3 0 0 Z " fill="#222" transform="translate(125,129)"/>
</svg>

