<?xml version="1.0" encoding="UTF-8"?>
<!-- <svg width="24" height="24" viewBox="0 0 24 24" xmlns="http://www.w3.org/2000/svg"><path fill="currentColor" d="m21.9 8.9l-1.7 1l-4-6.9l1.7-1zm-12.1-1l3 5.2l6.1-3.5l-3-5.2zm1.6 4.8l-2-3.5l-4.3 2.5l2 3.5zm-9.3 1.9l1 1.7l2.6-1.5l-1-1.7zm10-.6l-.3-.4l-4.3 2.5l.3.4c.2.3.5.6.8.8L7 22h2l1.4-4.3h.1L12 22h2l-1.9-5.6c.5-.7.5-1.6 0-2.4"/></svg> -->
<svg 
width="48" height="48" viewBox="0 0 48 48" 
xmlns="http://www.w3.org/2000/svg">
<g fill="none" stroke="currentColor" stroke-linejoin="round" stroke-width="4">
<path d="M21 38c9.389 0 17-7.611 17-17S30.389 4 21 4S4 11.611 4 21s7.611 17 17 17Z"/>
<path stroke-linecap="round" d="M26.657 14.343A7.98 7.98 0 0 0 21 12a7.98 7.98 0 0 0-5.657 2.343m17.879 18.879l8.485 8.485"/>
</g>
</svg>
