<svg xmlns="http://www.w3.org/2000/svg" version="1.1" xmlns:xlink="http://www.w3.org/1999/xlink" width="1000" height="1000"><style>
    #light-icon {
      display: inline;
    }
    #dark-icon {
      display: none;
    }

    @media (prefers-color-scheme: dark) {
      #light-icon {
        display: none;
      }
      #dark-icon {
        display: inline;
      }
    }
  </style><g id="light-icon"><svg xmlns="http://www.w3.org/2000/svg" version="1.1" xmlns:xlink="http://www.w3.org/1999/xlink" width="1000" height="1000"><g><g transform="matrix(41.666666666666664,0,0,41.666666666666664,0,0)"><svg xmlns="http://www.w3.org/2000/svg" version="1.1" xmlns:xlink="http://www.w3.org/1999/xlink" width="24" height="24"><svg width="24" height="24" viewBox="0 0 24 24" xmlns="http://www.w3.org/2000/svg">
  <path fill="#CDCDCD" stroke="currentColor" stroke-linecap="round" stroke-linejoin="round" stroke-width="1.5" d="M14 2h-4c-3.28 0-4.919 0-6.081.814a4.5 4.5 0 0 0-1.105 1.105C2 5.08 2 6.72 2 10s0 4.919.814 6.081a4.5 4.5 0 0 0 1.105 1.105C5.08 18 6.72 18 10 18h4c3.28 0 4.919 0 6.081-.814a4.5 4.5 0 0 0 1.105-1.105C22 14.92 22 13.28 22 10s0-4.919-.814-6.081a4.5 4.5 0 0 0-1.105-1.105C18.92 2 17.28 2 14 2m-3 13h2m1.5 7l-.316-.419c-.71-.944-.887-2.387-.437-3.581M9.5 22l.316-.419c.71-.944.887-2.387.437-3.581M7 22h10" color="currentColor"></path>
</svg></svg></g></g></svg></g><g id="dark-icon"><svg xmlns="http://www.w3.org/2000/svg" version="1.1" xmlns:xlink="http://www.w3.org/1999/xlink" width="1000" height="1000"><g clip-path="url(#SvgjsClipPath1035)"><rect width="1000" height="1000" fill="#ffffff"></rect><g transform="matrix(29.166666666666668,0,0,29.166666666666668,150,150)"><svg xmlns="http://www.w3.org/2000/svg" version="1.1" xmlns:xlink="http://www.w3.org/1999/xlink" width="24" height="24"><svg width="24" height="24" viewBox="0 0 24 24" xmlns="http://www.w3.org/2000/svg">
  <path fill="#CDCDCD" stroke="currentColor" stroke-linecap="round" stroke-linejoin="round" stroke-width="1.5" d="M14 2h-4c-3.28 0-4.919 0-6.081.814a4.5 4.5 0 0 0-1.105 1.105C2 5.08 2 6.72 2 10s0 4.919.814 6.081a4.5 4.5 0 0 0 1.105 1.105C5.08 18 6.72 18 10 18h4c3.28 0 4.919 0 6.081-.814a4.5 4.5 0 0 0 1.105-1.105C22 14.92 22 13.28 22 10s0-4.919-.814-6.081a4.5 4.5 0 0 0-1.105-1.105C18.92 2 17.28 2 14 2m-3 13h2m1.5 7l-.316-.419c-.71-.944-.887-2.387-.437-3.581M9.5 22l.316-.419c.71-.944.887-2.387.437-3.581M7 22h10" color="currentColor"></path>
</svg></svg></g></g><defs><clipPath id="SvgjsClipPath1035"><rect width="1000" height="1000" x="0" y="0" rx="350" ry="350"></rect></clipPath></defs></svg></g></svg>