<?xml version="1.0" encoding="UTF-8"?>
<svg width="24" height="24" viewBox="0 0 24 24" xmlns="http://www.w3.org/2000/svg">
  <path fill="#CDCDCD" stroke="currentColor" stroke-linecap="round" stroke-linejoin="round" stroke-width="1.5" d="M14 2h-4c-3.28 0-4.919 0-6.081.814a4.5 4.5 0 0 0-1.105 1.105C2 5.08 2 6.72 2 10s0 4.919.814 6.081a4.5 4.5 0 0 0 1.105 1.105C5.08 18 6.72 18 10 18h4c3.28 0 4.919 0 6.081-.814a4.5 4.5 0 0 0 1.105-1.105C22 14.92 22 13.28 22 10s0-4.919-.814-6.081a4.5 4.5 0 0 0-1.105-1.105C18.92 2 17.28 2 14 2m-3 13h2m1.5 7l-.316-.419c-.71-.944-.887-2.387-.437-3.581M9.5 22l.316-.419c.71-.944.887-2.387.437-3.581M7 22h10" color="currentColor"/>
</svg>
